<mxfile host="app.diagrams.net" modified="2024-04-12T09:50:22.939Z" agent="Mozilla/5.0 (X11; Linux x86_64) AppleWebKit/537.36 (KHTML, like Gecko) Chrome/123.0.0.0 Safari/537.36" version="24.2.3" etag="il5BKH3PDQ3g8FFXmPFW" type="github">
  <diagram name="Page-1" id="H8lkAueA0MpNnIZ6l39L">
    <mxGraphModel>
      <root>
        <mxCell id="0" />
        <mxCell id="1" parent="0" />
      </root>
    </mxGraphModel>
  </diagram>
</mxfile>
